<mxfile host="Electron" agent="Mozilla/5.0 (Windows NT 10.0; Win64; x64) AppleWebKit/537.36 (KHTML, like Gecko) draw.io/26.0.9 Chrome/128.0.6613.186 Electron/32.2.5 Safari/537.36" version="26.0.9">
  <diagram name="Page-1" id="2YBvvXClWsGukQMizWep">
    <mxGraphModel dx="2074" dy="2028" grid="0" gridSize="10" guides="1" tooltips="1" connect="1" arrows="1" fold="1" page="1" pageScale="1" pageWidth="850" pageHeight="1100" background="#ffffff" math="0" shadow="0">
      <root>
        <mxCell id="0" />
        <mxCell id="1" parent="0" />
        <mxCell id="C7yd0GDvHVK0XMGnsasg-59" value="" style="whiteSpace=wrap;html=1;aspect=fixed;" vertex="1" parent="1">
          <mxGeometry x="-134" y="-43" width="1055" height="1055" as="geometry" />
        </mxCell>
        <mxCell id="C7yd0GDvHVK0XMGnsasg-30" value="" style="shape=umlLifeline;perimeter=lifelinePerimeter;whiteSpace=wrap;html=1;container=0;dropTarget=0;collapsible=0;recursiveResize=0;outlineConnect=0;portConstraint=eastwest;newEdgeStyle={&quot;curved&quot;:0,&quot;rounded&quot;:0};participant=umlActor;size=89;spacingLeft=-2;spacingBottom=1;spacingRight=-3;" vertex="1" parent="1">
          <mxGeometry x="128" y="190" width="74" height="578" as="geometry" />
        </mxCell>
        <mxCell id="C7yd0GDvHVK0XMGnsasg-31" value="" style="html=1;points=[[0,0,0,0,5],[0,1,0,0,-5],[1,0,0,0,5],[1,1,0,0,-5]];perimeter=orthogonalPerimeter;outlineConnect=0;targetShapes=umlLifeline;portConstraint=eastwest;newEdgeStyle={&quot;curved&quot;:0,&quot;rounded&quot;:0};" vertex="1" parent="C7yd0GDvHVK0XMGnsasg-30">
          <mxGeometry x="32" y="226" width="10" height="40" as="geometry" />
        </mxCell>
        <mxCell id="C7yd0GDvHVK0XMGnsasg-32" value="" style="html=1;points=[[0,0,0,0,5],[0,1,0,0,-5],[1,0,0,0,5],[1,1,0,0,-5]];perimeter=orthogonalPerimeter;outlineConnect=0;targetShapes=umlLifeline;portConstraint=eastwest;newEdgeStyle={&quot;curved&quot;:0,&quot;rounded&quot;:0};" vertex="1" parent="C7yd0GDvHVK0XMGnsasg-30">
          <mxGeometry x="32" y="382" width="10" height="54" as="geometry" />
        </mxCell>
        <mxCell id="C7yd0GDvHVK0XMGnsasg-33" value="" style="html=1;points=[[0,0,0,0,5],[0,1,0,0,-5],[1,0,0,0,5],[1,1,0,0,-5]];perimeter=orthogonalPerimeter;outlineConnect=0;targetShapes=umlLifeline;portConstraint=eastwest;newEdgeStyle={&quot;curved&quot;:0,&quot;rounded&quot;:0};" vertex="1" parent="C7yd0GDvHVK0XMGnsasg-30">
          <mxGeometry x="32" y="292" width="10" height="46" as="geometry" />
        </mxCell>
        <mxCell id="C7yd0GDvHVK0XMGnsasg-34" value="" style="html=1;points=[[0,0,0,0,5],[0,1,0,0,-5],[1,0,0,0,5],[1,1,0,0,-5]];perimeter=orthogonalPerimeter;outlineConnect=0;targetShapes=umlLifeline;portConstraint=eastwest;newEdgeStyle={&quot;curved&quot;:0,&quot;rounded&quot;:0};" vertex="1" parent="C7yd0GDvHVK0XMGnsasg-30">
          <mxGeometry x="32" y="488" width="10" height="47" as="geometry" />
        </mxCell>
        <mxCell id="C7yd0GDvHVK0XMGnsasg-35" value="Envoi argent()" style="text;strokeColor=none;fillColor=none;html=1;align=center;verticalAlign=middle;whiteSpace=wrap;rounded=0;fontSize=16;" vertex="1" parent="1">
          <mxGeometry x="301" y="328" width="117" height="30" as="geometry" />
        </mxCell>
        <mxCell id="C7yd0GDvHVK0XMGnsasg-36" value="" style="shape=umlLifeline;perimeter=lifelinePerimeter;whiteSpace=wrap;html=1;container=0;dropTarget=0;collapsible=0;recursiveResize=0;outlineConnect=0;portConstraint=eastwest;newEdgeStyle={&quot;curved&quot;:0,&quot;rounded&quot;:0};participant=umlActor;size=89;spacingLeft=-2;spacingBottom=1;spacingRight=-3;" vertex="1" parent="1">
          <mxGeometry x="519" y="190" width="74" height="560" as="geometry" />
        </mxCell>
        <mxCell id="C7yd0GDvHVK0XMGnsasg-37" value="" style="html=1;points=[[0,0,0,0,5],[0,1,0,0,-5],[1,0,0,0,5],[1,1,0,0,-5]];perimeter=orthogonalPerimeter;outlineConnect=0;targetShapes=umlLifeline;portConstraint=eastwest;newEdgeStyle={&quot;curved&quot;:0,&quot;rounded&quot;:0};" vertex="1" parent="C7yd0GDvHVK0XMGnsasg-36">
          <mxGeometry x="30" y="206" width="10" height="40" as="geometry" />
        </mxCell>
        <mxCell id="C7yd0GDvHVK0XMGnsasg-38" value="Verification" style="html=1;align=left;spacingLeft=2;endArrow=block;rounded=0;edgeStyle=orthogonalEdgeStyle;curved=0;rounded=0;fontSize=12;startSize=8;endSize=8;" edge="1" parent="C7yd0GDvHVK0XMGnsasg-36" target="C7yd0GDvHVK0XMGnsasg-37">
          <mxGeometry relative="1" as="geometry">
            <mxPoint x="35" y="186" as="sourcePoint" />
            <Array as="points">
              <mxPoint x="65" y="216" />
            </Array>
          </mxGeometry>
        </mxCell>
        <mxCell id="C7yd0GDvHVK0XMGnsasg-39" value="" style="html=1;points=[[0,0,0,0,5],[0,1,0,0,-5],[1,0,0,0,5],[1,1,0,0,-5]];perimeter=orthogonalPerimeter;outlineConnect=0;targetShapes=umlLifeline;portConstraint=eastwest;newEdgeStyle={&quot;curved&quot;:0,&quot;rounded&quot;:0};" vertex="1" parent="C7yd0GDvHVK0XMGnsasg-36">
          <mxGeometry x="35" y="342" width="10" height="40" as="geometry" />
        </mxCell>
        <mxCell id="C7yd0GDvHVK0XMGnsasg-40" value="Création facture" style="html=1;align=left;spacingLeft=2;endArrow=block;rounded=0;edgeStyle=orthogonalEdgeStyle;curved=0;rounded=0;fontSize=12;startSize=8;endSize=8;" edge="1" parent="C7yd0GDvHVK0XMGnsasg-36" target="C7yd0GDvHVK0XMGnsasg-39">
          <mxGeometry relative="1" as="geometry">
            <mxPoint x="40" y="322" as="sourcePoint" />
            <Array as="points">
              <mxPoint x="70" y="352" />
            </Array>
          </mxGeometry>
        </mxCell>
        <mxCell id="C7yd0GDvHVK0XMGnsasg-41" value="" style="html=1;points=[[0,0,0,0,5],[0,1,0,0,-5],[1,0,0,0,5],[1,1,0,0,-5]];perimeter=orthogonalPerimeter;outlineConnect=0;targetShapes=umlLifeline;portConstraint=eastwest;newEdgeStyle={&quot;curved&quot;:0,&quot;rounded&quot;:0};" vertex="1" parent="C7yd0GDvHVK0XMGnsasg-36">
          <mxGeometry x="30.5" y="297" width="13" height="38" as="geometry" />
        </mxCell>
        <mxCell id="C7yd0GDvHVK0XMGnsasg-42" value="" style="html=1;points=[[0,0,0,0,5],[0,1,0,0,-5],[1,0,0,0,5],[1,1,0,0,-5]];perimeter=orthogonalPerimeter;outlineConnect=0;targetShapes=umlLifeline;portConstraint=eastwest;newEdgeStyle={&quot;curved&quot;:0,&quot;rounded&quot;:0};" vertex="1" parent="C7yd0GDvHVK0XMGnsasg-36">
          <mxGeometry x="32" y="436" width="10" height="49" as="geometry" />
        </mxCell>
        <mxCell id="C7yd0GDvHVK0XMGnsasg-43" value="" style="edgeStyle=none;curved=0;rounded=0;orthogonalLoop=1;jettySize=auto;html=1;fontSize=12;startSize=8;endSize=8;" edge="1" parent="1" source="C7yd0GDvHVK0XMGnsasg-46">
          <mxGeometry relative="1" as="geometry">
            <mxPoint x="554.5" y="376" as="targetPoint" />
          </mxGeometry>
        </mxCell>
        <mxCell id="C7yd0GDvHVK0XMGnsasg-44" value="" style="html=1;points=[[0,0,0,0,5],[0,1,0,0,-5],[1,0,0,0,5],[1,1,0,0,-5]];perimeter=orthogonalPerimeter;outlineConnect=0;targetShapes=umlLifeline;portConstraint=eastwest;newEdgeStyle={&quot;curved&quot;:0,&quot;rounded&quot;:0};" vertex="1" parent="1">
          <mxGeometry x="160" y="355" width="10" height="40" as="geometry" />
        </mxCell>
        <mxCell id="C7yd0GDvHVK0XMGnsasg-45" value="" style="edgeStyle=none;curved=0;rounded=0;orthogonalLoop=1;jettySize=auto;html=1;fontSize=12;startSize=8;endSize=8;" edge="1" parent="1">
          <mxGeometry relative="1" as="geometry">
            <mxPoint x="170" y="356" as="sourcePoint" />
            <mxPoint x="549.5" y="356" as="targetPoint" />
          </mxGeometry>
        </mxCell>
        <mxCell id="C7yd0GDvHVK0XMGnsasg-46" value="" style="html=1;points=[[0,0,0,0,5],[0,1,0,0,-5],[1,0,0,0,5],[1,1,0,0,-5]];perimeter=orthogonalPerimeter;outlineConnect=0;targetShapes=umlLifeline;portConstraint=eastwest;newEdgeStyle={&quot;curved&quot;:0,&quot;rounded&quot;:0};" vertex="1" parent="1">
          <mxGeometry x="549.5" y="357" width="13" height="38" as="geometry" />
        </mxCell>
        <mxCell id="C7yd0GDvHVK0XMGnsasg-47" value="" style="edgeStyle=none;curved=0;rounded=0;orthogonalLoop=1;jettySize=auto;html=1;fontSize=12;startSize=8;endSize=8;" edge="1" parent="1" source="C7yd0GDvHVK0XMGnsasg-37" target="C7yd0GDvHVK0XMGnsasg-31">
          <mxGeometry relative="1" as="geometry" />
        </mxCell>
        <mxCell id="C7yd0GDvHVK0XMGnsasg-48" value="ok bien reçu()" style="text;strokeColor=none;fillColor=none;html=1;align=center;verticalAlign=middle;whiteSpace=wrap;rounded=0;fontSize=16;" vertex="1" parent="1">
          <mxGeometry x="305" y="379" width="122" height="30" as="geometry" />
        </mxCell>
        <mxCell id="C7yd0GDvHVK0XMGnsasg-49" value="" style="edgeStyle=none;curved=0;rounded=0;orthogonalLoop=1;jettySize=auto;html=1;fontSize=12;startSize=8;endSize=8;" edge="1" parent="1">
          <mxGeometry relative="1" as="geometry">
            <mxPoint x="171" y="483" as="sourcePoint" />
            <mxPoint x="555.5" y="483" as="targetPoint" />
          </mxGeometry>
        </mxCell>
        <mxCell id="C7yd0GDvHVK0XMGnsasg-50" value="Demande&amp;nbsp; réçu()" style="text;strokeColor=none;fillColor=none;html=1;align=center;verticalAlign=middle;whiteSpace=wrap;rounded=0;fontSize=16;" vertex="1" parent="1">
          <mxGeometry x="289.5" y="448" width="140" height="30" as="geometry" />
        </mxCell>
        <mxCell id="C7yd0GDvHVK0XMGnsasg-51" value="" style="edgeStyle=none;curved=0;rounded=0;orthogonalLoop=1;jettySize=auto;html=1;fontSize=12;startSize=8;endSize=8;" edge="1" parent="1" source="C7yd0GDvHVK0XMGnsasg-39" target="C7yd0GDvHVK0XMGnsasg-32">
          <mxGeometry relative="1" as="geometry" />
        </mxCell>
        <mxCell id="C7yd0GDvHVK0XMGnsasg-52" value="Envoir réçu()" style="text;strokeColor=none;fillColor=none;html=1;align=center;verticalAlign=middle;whiteSpace=wrap;rounded=0;fontSize=16;" vertex="1" parent="1">
          <mxGeometry x="289" y="539" width="112.5" height="30" as="geometry" />
        </mxCell>
        <mxCell id="C7yd0GDvHVK0XMGnsasg-53" value="" style="edgeStyle=none;curved=0;rounded=0;orthogonalLoop=1;jettySize=auto;html=1;fontSize=12;startSize=8;endSize=8;" edge="1" parent="1">
          <mxGeometry relative="1" as="geometry">
            <mxPoint x="170" y="625" as="sourcePoint" />
            <mxPoint x="551" y="625" as="targetPoint" />
          </mxGeometry>
        </mxCell>
        <mxCell id="C7yd0GDvHVK0XMGnsasg-54" value="Confirme reception réçu()" style="text;strokeColor=none;fillColor=none;html=1;align=center;verticalAlign=middle;whiteSpace=wrap;rounded=0;fontSize=16;" vertex="1" parent="1">
          <mxGeometry x="257" y="595" width="194" height="30" as="geometry" />
        </mxCell>
        <mxCell id="C7yd0GDvHVK0XMGnsasg-55" value="" style="edgeStyle=none;curved=0;rounded=0;orthogonalLoop=1;jettySize=auto;html=1;fontSize=12;startSize=8;endSize=8;" edge="1" parent="1">
          <mxGeometry relative="1" as="geometry">
            <mxPoint x="551" y="674" as="sourcePoint" />
            <mxPoint x="163.5" y="674" as="targetPoint" />
          </mxGeometry>
        </mxCell>
        <mxCell id="C7yd0GDvHVK0XMGnsasg-56" value="ok()" style="text;strokeColor=none;fillColor=none;html=1;align=center;verticalAlign=middle;whiteSpace=wrap;rounded=0;fontSize=16;" vertex="1" parent="1">
          <mxGeometry x="267" y="643" width="194" height="30" as="geometry" />
        </mxCell>
        <mxCell id="C7yd0GDvHVK0XMGnsasg-57" value="Conducteur" style="text;strokeColor=none;fillColor=none;html=1;align=center;verticalAlign=middle;whiteSpace=wrap;rounded=0;fontSize=16;" vertex="1" parent="1">
          <mxGeometry x="112" y="160" width="111" height="30" as="geometry" />
        </mxCell>
        <mxCell id="C7yd0GDvHVK0XMGnsasg-58" value="Administrateur" style="text;strokeColor=none;fillColor=none;html=1;align=center;verticalAlign=middle;whiteSpace=wrap;rounded=0;fontSize=16;" vertex="1" parent="1">
          <mxGeometry x="500.5" y="150" width="111" height="30" as="geometry" />
        </mxCell>
        <mxCell id="C7yd0GDvHVK0XMGnsasg-60" value="" style="shape=umlDestroy;whiteSpace=wrap;html=1;strokeWidth=3;targetShapes=umlLifeline;" vertex="1" parent="1">
          <mxGeometry x="519" y="485" width="30" height="30" as="geometry" />
        </mxCell>
      </root>
    </mxGraphModel>
  </diagram>
</mxfile>
